<svg width="32" height="227" viewBox="0 0 32 227" fill="none" xmlns="http://www.w3.org/2000/svg">
<g clip-path="url(#clip0_2051_24612)">
<mask id="mask0_2051_24612" style="mask-type:luminance" maskUnits="userSpaceOnUse" x="0" y="0" width="32" height="227">
<path d="M32 0H0V227H32V0Z" fill="white"/>
</mask>
<g mask="url(#mask0_2051_24612)">
<path d="M164.298 -80.7189C166.733 -81.8911 166.942 -82.3163 164.248 -82.1035C136.489 -79.9108 -26.9501 -69.0478 -74.5197 -60.2941C-82.6372 -58.8004 -93.116 -54.5912 -101.121 -52.5824L-675.629 91.5762C-694.716 96.3656 -693.375 123.923 -673.913 126.836L-0.00238037 227.719C9.93874 227.719 -0.00238243 237.66 -0.00238037 227.719C-9.9435 227.719 -0.00238037 227.719 -0.00238037 523V227.719C-0.00234803 186.356 31.9976 212.591 31.9976 169.521V55.6926C31.9976 14.7887 -0.00235473 40.1788 -0.00238037 -1.63848C-0.00237831 -11.5796 -9.9435 -1.63848 -0.00238037 -1.63848L164.298 -80.7189Z" fill="#63686F"/>
</g>
</g>
<defs>
<clipPath id="clip0_2051_24612">
<rect width="32" height="227" fill="white"/>
</clipPath>
</defs>
</svg>
