<svg xmlns="http://www.w3.org/2000/svg" width="40" height="40" fill="none" viewBox="0 0 40 40"><path fill="#000" d="M17.3017 33H4.79267C4.26422 33 4 32.7298 4 32.1893V8.82186C4 8.27395 4.26422 8 4.79267 8H8.01764C8.55333 8 8.82117 8.27395 8.82117 8.82186V28.2577C8.82117 28.539 8.97319 28.6797 9.27723 28.6797H17.3017C17.8084 28.6797 18.0618 28.9648 18.0618 29.5349V32.1893C18.0618 32.7298 17.8084 33 17.3017 33ZM29.7672 33H25.7387C23.7335 33 22.188 32.4558 21.1021 31.3674C20.009 30.279 19.4625 28.7093 19.4625 26.6584V14.3416C19.4625 12.2907 20.009 10.721 21.1021 9.63261C22.188 8.5442 23.7335 8 25.7387 8H29.7672C31.7362 8 33.2673 8.55161 34.3604 9.65482C35.4535 10.758 36 12.3203 36 14.3416V15.5078C36 16.0779 35.7322 16.363 35.1965 16.363H31.9715C31.4358 16.363 31.168 16.0779 31.168 15.5078V14.5749C31.168 13.7456 31.0051 13.157 30.6793 12.809C30.3463 12.4536 29.7745 12.2759 28.9637 12.2759H26.4988C25.7098 12.2759 25.1451 12.4536 24.8049 12.809C24.4647 13.157 24.2945 13.7456 24.2945 14.5749V26.4363C24.2945 27.2581 24.4647 27.8467 24.8049 28.2021C25.1451 28.5501 25.7098 28.7241 26.4988 28.7241H28.9637C29.7745 28.7241 30.3463 28.5501 30.6793 28.2021C31.0051 27.8467 31.168 27.2581 31.168 26.4363V23.9818C31.168 23.693 31.0304 23.5486 30.7553 23.5486H28.4751C27.9394 23.5486 27.6715 23.2784 27.6715 22.7379V20.0946C27.6715 19.5467 27.9394 19.2728 28.4751 19.2728H35.1205C35.7068 19.2728 36 19.5726 36 20.1724V26.6584C36 28.6797 35.4535 30.242 34.3604 31.3452C33.2673 32.4484 31.7362 33 29.7672 33Z"/></svg>